<?xml version="1.0" encoding="UTF-8"?>
<svg width="99px" height="14px" viewBox="0 0 99 14" version="1.1" xmlns="http://www.w3.org/2000/svg" xmlns:xlink="http://www.w3.org/1999/xlink">
    <!-- Generator: Sketch 47.1 (45422) - http://www.bohemiancoding.com/sketch -->
    <title>Tesla_Motors</title>
    <desc>Created with Sketch.</desc>
    <defs></defs>
    <g id="Page-1" stroke="none" stroke-width="1" fill="none" fill-rule="evenodd">
        <g id="Desktop-HD" transform="translate(-32.000000, -30.000000)" fill-rule="nonzero" fill="#FFFFFF">
            <g id="Tesla_Motors" transform="translate(32.000000, 30.000000)">
                <g id="TESLA">
                    <g id="g8" transform="translate(84.070946, 0.000000)">
                        <polyline id="polyline10" points="0.567922297 5.62947368 0.567922297 13.7023158 3.06060811 13.7023158 3.06060811 8.32742105 12.1328209 8.32742105 12.1328209 13.7023158 14.6237331 13.7023158 14.6237331 5.64347368 0.567922297 5.62947368"></polyline>
                        <path d="M2.78285473,3.01810526 L12.367652,3.01810526 C13.6989527,2.74326316 14.6890034,1.52305263 14.9681757,0.342631579 L0.182685811,0.342631579 C0.45902027,1.52342105 1.46361486,2.74326316 2.78285473,3.01810526" id="path12"></path>
                    </g>
                    <g id="g14" transform="translate(65.270270, 0.000000)">
                        <path d="M11.8192399,13.7074737 C13.0760473,13.1541053 13.7521622,12.1969474 14.0111149,11.0769474 L2.83109797,11.0769474 L2.83819257,0.349263158 L0.332027027,0.356631579 L0.332027027,13.7074737 L11.8192399,13.7074737" id="path16"></path>
                    </g>
                    <g id="g18" transform="translate(43.631757, 0.000000)">
                        <path d="M3.33375,2.982 L12.1856757,2.982 C13.5201689,2.57931579 14.6407601,1.52342105 14.913902,0.352947368 L0.852415541,0.352947368 L0.852415541,8.24268421 L12.3612669,8.24268421 L12.3612669,11.0113684 L3.33375,11.0187368 C1.91908784,11.4284211 0.719391892,12.4150526 0.120962838,13.7181579 L0.852415541,13.7041579 L14.8340878,13.7041579 L14.8340878,5.61952632 L3.33375,5.61952632 L3.33375,2.982" id="path20"></path>
                    </g>
                    <g id="g22" transform="translate(22.347973, 0.000000)">
                        <path d="M2.76511824,3.00742105 L12.346723,3.00742105 C13.6797973,2.73147368 14.6705574,1.51236842 14.9483108,0.330842105 L0.163530405,0.330842105 C0.439510135,1.51236842 1.44481419,2.73147368 2.76511824,3.00742105" id="path24"></path>
                        <path d="M2.76511824,8.28394737 L12.346723,8.28394737 C13.6797973,8.01094737 14.6705574,6.79073684 14.9483108,5.60847368 L0.163530405,5.60847368 C0.439510135,6.79110526 1.44481419,8.01094737 2.76511824,8.28394737" id="path26"></path>
                        <path d="M2.76511824,13.706 L12.346723,13.706 C13.6797973,13.4307895 14.6705574,12.2109474 14.9483108,11.0301579 L0.163530405,11.0301579 C0.439510135,12.2113158 1.44481419,13.4307895 2.76511824,13.706" id="path28"></path>
                    </g>
                    <g id="g30">
                        <path d="M0.185878378,0.363263158 C0.473918919,1.53005263 1.44658784,2.72263158 2.78108108,3.02142105 L6.81435811,3.02142105 L7.02010135,3.10578947 L7.02010135,13.6761579 L9.53868243,13.6761579 L9.53868243,3.10578947 L9.76748311,3.02142105 L13.8043074,3.02142105 C15.1536993,2.66036842 16.1054392,1.53005263 16.3885135,0.363263158 L16.3885135,0.337473684 L0.185878378,0.337473684 L0.185878378,0.363263158" id="path32"></path>
                    </g>
                </g>
            </g>
        </g>
    </g>
</svg>